<?xml version="1.0" encoding="utf-8"?>
<!-- Generator: Adobe Illustrator 22.1.0, SVG Export Plug-In . SVG Version: 6.00 Build 0)  -->
<svg version="1.1" xmlns="http://www.w3.org/2000/svg" xmlns:xlink="http://www.w3.org/1999/xlink" x="0px" y="0px"
	 viewBox="0 0 300 299" style="enable-background:new 0 0 300 299;" xml:space="preserve">
<style type="text/css">
	.st0{fill:#FFFFFF;}
	.st1{fill:none;stroke:#000000;stroke-width:6;stroke-miterlimit:10;}
	.st2{fill:#FFFFFF;stroke:#000000;stroke-width:6;stroke-miterlimit:10;}
	.st3{fill:url(#SVGID_1_);}
	.st4{fill:url(#SVGID_2_);}
	.st5{fill:url(#SVGID_3_);}
	.st6{fill:#EC6B65;}
</style>
<g id="icons_x2F_colours">
	<g id="left_arrow">
		<polyline class="st2" points="168.2,183.2 124,151 123.5,150.5 142.8,132.7 162.2,114.9 		"/>
		<path d="M84.1,153.6c-2.4-36.3,25.2-67.8,61.5-70.2s67.8,25.2,70.2,61.5c2.4,36.3-25.2,67.8-61.5,70.2
			C118,217.5,86.5,189.9,84.1,153.6z M89.9,153.2c2.2,33.1,30.9,58.2,63.9,56.1s58.2-30.9,56.1-63.9c-2.2-33.1-30.9-58.2-63.9-56.1
			C112.9,91.5,87.8,120.1,89.9,153.2z"/>
	</g>
</g>
<g id="buttons">
</g>
</svg>
