<?xml version="1.0" encoding="utf-8"?>
<!-- Generator: Adobe Illustrator 22.1.0, SVG Export Plug-In . SVG Version: 6.00 Build 0)  -->
<svg version="1.1" xmlns="http://www.w3.org/2000/svg" xmlns:xlink="http://www.w3.org/1999/xlink" x="0px" y="0px"
	 viewBox="0 0 300 299" style="enable-background:new 0 0 300 299;" xml:space="preserve">
<style type="text/css">
	.st0{fill:#FFFFFF;}
	.st1{fill:none;stroke:#000000;stroke-width:6;stroke-miterlimit:10;}
	.st2{fill:#FFFFFF;stroke:#000000;stroke-width:6;stroke-miterlimit:10;}
	.st3{fill:url(#SVGID_1_);}
	.st4{fill:url(#SVGID_2_);}
	.st5{fill:url(#SVGID_3_);}
	.st6{fill:#EC6B65;}
</style>
<g id="icons_x2F_colours">
	<g id="location">
		<g id="point">
			<polygon points="151.7,214 111.1,141.1 116.3,138.3 151.6,201.6 184.7,139 190,141.8 			"/>
		</g>
		<g id="outter_circle">
			<g>
				<path d="M150.5,93c19.6,0,35.5,15.9,35.5,35.5S170.1,164,150.5,164c-10.5,0-20-4.6-26.5-12c-5.6-6.3-9-14.5-9-23.5
					C115,108.9,130.9,93,150.5,93 M150.5,87c-22.9,0-41.5,18.6-41.5,41.5c0,10.3,3.8,19.7,10,27c7.6,8.9,18.9,14.5,31.5,14.5
					c22.9,0,41.5-18.6,41.5-41.5S173.4,87,150.5,87L150.5,87z"/>
			</g>
		</g>
		<circle id="inner_circle" class="st1" cx="150.5" cy="127.5" r="14.5"/>
	</g>
</g>
<g id="buttons">
</g>
</svg>
